<?xml version="1.0" encoding="UTF-8"?>
<svg xmlns="http://www.w3.org/2000/svg" xmlns:xlink="http://www.w3.org/1999/xlink" width="1600" height="900" viewBox="0 0 1600 900" role="img" aria-labelledby="title desc">
  <title id="title">PatchTST-style Encoder：必须保留的 Transformer 强对照</title>
  <desc id="desc">固定 patch → 全局 self-attention；接口最贴，但并不是 2025/2026 的新架构</desc>
  <defs>
    <filter id="shadow" x="-20%" y="-20%" width="140%" height="150%">
      <feDropShadow dx="0" dy="5" stdDeviation="8" flood-color="#1E365D" flood-opacity=".08"/>
    </filter>
    <filter id="soft" x="-30%" y="-30%" width="160%" height="160%">
      <feGaussianBlur stdDeviation="18"/>
    </filter>
    <linearGradient id="headerGlow" x1="0" x2="1">
      <stop offset="0" stop-color="#3278E8" stop-opacity=".18"/>
      <stop offset="1" stop-color="#7357D9" stop-opacity=".04"/>
    </linearGradient>
    <linearGradient id="llmGrad" x1="0" x2="1" y1="0" y2="1">
      <stop offset="0" stop-color="#18365F"/>
      <stop offset="1" stop-color="#101F36"/>
    </linearGradient>
    <marker id="arrow" markerWidth="10" markerHeight="10" refX="9" refY="3.5" orient="auto">
      <polygon points="0 0, 10 3.5, 0 7" fill="#52637A"/>
    </marker>
    <marker id="blueArrow" markerWidth="10" markerHeight="10" refX="9" refY="3.5" orient="auto">
      <polygon points="0 0, 10 3.5, 0 7" fill="#3278E8"/>
    </marker>
    <marker id="violetArrow" markerWidth="10" markerHeight="10" refX="9" refY="3.5" orient="auto">
      <polygon points="0 0, 10 3.5, 0 7" fill="#7357D9"/>
    </marker>
    <style>
      text { font-family: Inter, "SF Pro Display", "PingFang SC", "Noto Sans CJK SC", "Microsoft YaHei", sans-serif; }
      .mono { font-family: "SFMono-Regular", "Cascadia Code", "Roboto Mono", monospace; }
    </style>
  </defs>
  <rect width="1600" height="900" fill="#F3F7FC"/>
  <circle cx="1365" cy="85" r="155" fill="#3278E8" opacity=".06" filter="url(#soft)"/>
  <rect x="34" y="28" width="1532" height="844" rx="30" fill="#FFFFFF" stroke="#D9E2EF" stroke-width="1.4"/>
  <rect x="34" y="28" width="1532" height="118" rx="30" fill="url(#headerGlow)"/>
  <rect x="34" y="116" width="1532" height="30" fill="#FFFFFF" opacity=".5"/>
  <rect x="72" y="58" width="82" height="34" rx="17" fill="#15263F" stroke="none" stroke-width="1" /><text x="113" y="81" font-size="15" font-weight="700" fill="#FFFFFF" text-anchor="middle" >FIG 05</text>
  <text x="174" y="82" font-size="32" font-weight="820" fill="#10213B" text-anchor="start" >PatchTST-style Encoder：必须保留的 Transformer 强对照</text>
  <text x="174" y="116" font-size="17" font-weight="520" fill="#52637A" text-anchor="start" >固定 patch → 全局 self-attention；接口最贴，但并不是 2025/2026 的新架构</text>
  <rect x="1328" y="63" width="188" height="34" rx="17" fill="#EAF2FF" stroke="none" stroke-width="1" /><text x="1422" y="86" font-size="15" font-weight="700" fill="#3278E8" text-anchor="middle" >CONTROL · ICLR 2023</text>
  <rect x="72" y="178" width="288" height="350" rx="18" fill="#EAF2FF" stroke="#BDD4FA" stroke-width="1.5" filter="url(#shadow)"/><text x="90" y="209" font-size="19" font-weight="750" fill="#10213B" text-anchor="start" >统一输入接口</text><rect x="264" y="190" width="78" height="34" rx="17" fill="#FFFFFF" stroke="#BDD4FA" stroke-width="1" /><text x="303" y="213" font-size="15" font-weight="700" fill="#3278E8" text-anchor="middle" >固定</text><text x="90" y="239" font-size="15.5" font-weight="500" fill="#52637A" text-anchor="start" >单条变长时序 + mask</text><text x="90" y="262" font-size="15.5" font-weight="500" fill="#52637A" text-anchor="start" >仅有效点参与 patchify</text><line x1="96" y1="332" x2="336" y2="332" stroke="#D9E2EF" stroke-width="1"/>
  <polyline points="96,317.04 112.8,311.76 127.2,320.56 144,281.84 160.8,329.36 177.60000000000002,314.4 196.8,308.24 211.2,316.15999999999997 228,294.16 244.8,302.96 261.6,285.36 278.4,323.2 295.2,311.76 312,317.04 336,292.4" fill="none" stroke="#3278E8" stroke-width="4" stroke-linecap="round" stroke-linejoin="round"/><text x="96" y="382" font-size="14" font-weight="700" fill="#3278E8" text-anchor="start" >value</text><text x="96" y="408" font-size="14" font-weight="700" fill="#52637A" text-anchor="start" >mask</text><rect x="144" y="394" width="10" height="12" rx="2" fill="#168B67"/><rect x="159" y="394" width="10" height="12" rx="2" fill="#168B67"/><rect x="174" y="394" width="10" height="12" rx="2" fill="#168B67"/><rect x="189" y="394" width="10" height="12" rx="2" fill="#168B67"/><rect x="204" y="394" width="10" height="12" rx="2" fill="#168B67"/><rect x="219" y="394" width="10" height="12" rx="2" fill="#168B67"/><rect x="234" y="394" width="10" height="12" rx="2" fill="#168B67"/><rect x="249" y="394" width="10" height="12" rx="2" fill="#168B67"/><rect x="264" y="394" width="10" height="12" rx="2" fill="#168B67"/><rect x="279" y="394" width="10" height="12" rx="2" fill="#168B67"/><rect x="294" y="394" width="10" height="12" rx="2" fill="#DCE3EC"/><rect x="309" y="394" width="10" height="12" rx="2" fill="#DCE3EC"/><text x="96" y="446" font-size="16" font-weight="750" fill="#10213B" text-anchor="start" >Patchify</text><text x="184" y="446" font-size="15" font-weight="600" fill="#52637A" text-anchor="start" >p = 8, stride = 8</text><rect x="96" y="466" width="52" height="42" rx="12" fill="#EAF2FF" stroke="#AFCBF6" stroke-width="1.5" /><text x="122" y="499" font-size="17" font-weight="750" fill="#3278E8" text-anchor="middle" >p1</text><rect x="155" y="466" width="52" height="42" rx="12" fill="#EAF2FF" stroke="#AFCBF6" stroke-width="1.5" /><text x="181" y="499" font-size="17" font-weight="750" fill="#3278E8" text-anchor="middle" >p2</text><rect x="214" y="466" width="52" height="42" rx="12" fill="#EAF2FF" stroke="#AFCBF6" stroke-width="1.5" /><text x="240" y="499" font-size="17" font-weight="750" fill="#3278E8" text-anchor="middle" >p3</text><rect x="273" y="466" width="52" height="42" rx="12" fill="#EAF2FF" stroke="#AFCBF6" stroke-width="1.5" /><text x="299" y="499" font-size="17" font-weight="750" fill="#3278E8" text-anchor="middle" >p4</text><text x="312" y="493" font-size="19" font-weight="700" fill="#8A98AA" text-anchor="start" >…</text><text x="96" y="522" font-size="15" font-weight="700" fill="#3278E8" text-anchor="start" >Nᵢ = ⌈Lᵢ / 8⌉</text><path d="M 360 352 L 405 352" fill="none" stroke="#3278E8" stroke-width="2.5"  marker-end="url(#blueArrow)"/><rect x="405" y="178" width="790" height="350" rx="18" fill="#F0ECFF" stroke="#CFC4F8" stroke-width="1.5" filter="url(#shadow)"/><text x="423" y="209" font-size="19" font-weight="750" fill="#10213B" text-anchor="start" >PatchTST-style Encoder：全局 patch 自注意力</text><rect x="1099" y="190" width="78" height="34" rx="17" fill="#FFFFFF" stroke="#CFC4F8" stroke-width="1" /><text x="1138" y="213" font-size="15" font-weight="700" fill="#7357D9" text-anchor="middle" >强对照</text><text x="423" y="239" font-size="15.5" font-weight="500" fill="#52637A" text-anchor="start" >固定 patch + position embedding + Transformer 全局交互</text><rect x="445" y="255" width="64" height="48" rx="12" fill="#EAF2FF" stroke="#AFCBF6" stroke-width="1.5" /><text x="477" y="288" font-size="17" font-weight="750" fill="#3278E8" text-anchor="middle" >p1</text><rect x="521" y="255" width="64" height="48" rx="12" fill="#EAF2FF" stroke="#AFCBF6" stroke-width="1.5" /><text x="553" y="288" font-size="17" font-weight="750" fill="#3278E8" text-anchor="middle" >p2</text><rect x="597" y="255" width="64" height="48" rx="12" fill="#EAF2FF" stroke="#AFCBF6" stroke-width="1.5" /><text x="629" y="288" font-size="17" font-weight="750" fill="#3278E8" text-anchor="middle" >p3</text><rect x="673" y="255" width="64" height="48" rx="12" fill="#EAF2FF" stroke="#AFCBF6" stroke-width="1.5" /><text x="705" y="288" font-size="17" font-weight="750" fill="#3278E8" text-anchor="middle" >p4</text><rect x="749" y="255" width="64" height="48" rx="12" fill="#EAF2FF" stroke="#AFCBF6" stroke-width="1.5" /><text x="781" y="288" font-size="17" font-weight="750" fill="#3278E8" text-anchor="middle" >p5</text><rect x="825" y="255" width="64" height="48" rx="12" fill="#EAF2FF" stroke="#AFCBF6" stroke-width="1.5" /><text x="857" y="288" font-size="17" font-weight="750" fill="#3278E8" text-anchor="middle" >p6</text><path d="M 850 279 L 890 279" fill="none" stroke="#3278E8" stroke-width="2.3"  marker-end="url(#blueArrow)"/><rect x="900" y="222" width="250" height="232" rx="18" fill="#FAF8FF" stroke="#CFC4F8" stroke-width="1.5" /><text x="1025" y="252" font-size="18" font-weight="800" fill="#7357D9" text-anchor="middle" >Transformer Encoder × K</text><circle cx="945" cy="306" r="11" fill="#EAF2FF" stroke="#3278E8" stroke-width="2"/><circle cx="985" cy="306" r="11" fill="#EAF2FF" stroke="#3278E8" stroke-width="2"/><circle cx="1025" cy="306" r="11" fill="#EAF2FF" stroke="#3278E8" stroke-width="2"/><circle cx="1065" cy="306" r="11" fill="#EAF2FF" stroke="#3278E8" stroke-width="2"/><circle cx="1105" cy="306" r="11" fill="#EAF2FF" stroke="#3278E8" stroke-width="2"/><path d="M 945 306 Q 965 265 985 306" fill="none" stroke="#7357D9" stroke-width="1.2" opacity=".5"/><path d="M 945 306 Q 985 260 1025 306" fill="none" stroke="#7357D9" stroke-width="1.2" opacity=".5"/><path d="M 945 306 Q 1005 255 1065 306" fill="none" stroke="#7357D9" stroke-width="1.2" opacity=".5"/><path d="M 945 306 Q 1025 250 1105 306" fill="none" stroke="#7357D9" stroke-width="1.2" opacity=".5"/><path d="M 985 306 Q 1005 265 1025 306" fill="none" stroke="#7357D9" stroke-width="1.2" opacity=".5"/><path d="M 985 306 Q 1025 260 1065 306" fill="none" stroke="#7357D9" stroke-width="1.2" opacity=".5"/><path d="M 985 306 Q 1045 255 1105 306" fill="none" stroke="#7357D9" stroke-width="1.2" opacity=".5"/><path d="M 1025 306 Q 1045 265 1065 306" fill="none" stroke="#7357D9" stroke-width="1.2" opacity=".5"/><path d="M 1025 306 Q 1065 260 1105 306" fill="none" stroke="#7357D9" stroke-width="1.2" opacity=".5"/><path d="M 1065 306 Q 1085 265 1105 306" fill="none" stroke="#7357D9" stroke-width="1.2" opacity=".5"/><rect x="930" y="346" width="190" height="34" rx="9" fill="#F0ECFF" stroke="#CFC4F8" stroke-width="1" /><text x="1025" y="369" font-size="13.5" font-weight="700" fill="#7357D9" text-anchor="middle" >Multi-head attention</text><rect x="930" y="393" width="190" height="34" rx="9" fill="#EAF2FF" stroke="#BDD4FA" stroke-width="1" /><text x="1025" y="416" font-size="13.5" font-weight="700" fill="#3278E8" text-anchor="middle" >FFN + residual</text><rect x="445" y="353" width="390" height="34" rx="17" fill="#F0ECFF" stroke="none" stroke-width="1" /><text x="640" y="376" font-size="15" font-weight="700" fill="#7357D9" text-anchor="middle" >任意 patch ↔ 任意 patch：全局交互 O(N²)</text><rect x="445" y="418" width="390" height="34" rx="17" fill="#F7F9FC" stroke="#D9E2EF" stroke-width="1" /><text x="640" y="441" font-size="15" font-weight="700" fill="#52637A" text-anchor="middle" >原生时序论文，但发表早于 ChatTS</text><path d="M 1195 352 L 1235 352" fill="none" stroke="#168B67" stroke-width="2.5"  marker-end="url(#arrow)"/><rect x="1240" y="178" width="286" height="350" rx="18" fill="#E8F7F1" stroke="#BCE5D5" stroke-width="1.5" filter="url(#shadow)"/><text x="1258" y="209" font-size="19" font-weight="750" fill="#10213B" text-anchor="start" >统一输出接口</text><rect x="1430" y="190" width="78" height="34" rx="17" fill="#FFFFFF" stroke="#BCE5D5" stroke-width="1" /><text x="1469" y="213" font-size="15" font-weight="700" fill="#168B67" text-anchor="middle" >保留</text><text x="1258" y="239" font-size="15.5" font-weight="500" fill="#52637A" text-anchor="start" >不改 processor / placeholder</text><text x="1258" y="262" font-size="15.5" font-weight="500" fill="#52637A" text-anchor="start" >不改 LLM token merge</text><rect x="1264" y="268" width="238" height="58" rx="14" fill="#E8F7F1" stroke="#A9DCC9" stroke-width="1.5" /><text x="1383" y="292" font-size="15.5" font-weight="750" fill="#168B67" text-anchor="middle" >Token projector</text><text x="1383" y="315" font-size="15" font-weight="650" fill="#52637A" text-anchor="middle" >dₜₛ → dLLM</text><rect x="1274" y="350" width="46" height="42" rx="12" fill="#E8F7F1" stroke="#A9DCC9" stroke-width="1.5" /><text x="1297" y="383" font-size="17" font-weight="750" fill="#168B67" text-anchor="middle" >p1</text><rect x="1326" y="350" width="46" height="42" rx="12" fill="#E8F7F1" stroke="#A9DCC9" stroke-width="1.5" /><text x="1349" y="383" font-size="17" font-weight="750" fill="#168B67" text-anchor="middle" >p2</text><rect x="1378" y="350" width="46" height="42" rx="12" fill="#E8F7F1" stroke="#A9DCC9" stroke-width="1.5" /><text x="1401" y="383" font-size="17" font-weight="750" fill="#168B67" text-anchor="middle" >p3</text><rect x="1430" y="350" width="46" height="42" rx="12" fill="#E8F7F1" stroke="#A9DCC9" stroke-width="1.5" /><text x="1453" y="383" font-size="17" font-weight="750" fill="#168B67" text-anchor="middle" >p4</text><text x="1264" y="418" font-size="15.5" font-weight="700" fill="#10213B" text-anchor="start" >E ∈ ℝ^(ΣNᵢ × dLLM)</text><text x="1264" y="445" font-size="14.5" font-weight="600" fill="#52637A" text-anchor="start" >patch_cnt = [N₁, …, Nᴮ]</text><rect x="1264" y="466" width="238" height="42" rx="12" fill="url(#llmGrad)"/><text x="1383" y="493" font-size="16" font-weight="750" fill="#FFFFFF" text-anchor="middle" >插入文本 token → LLM</text>
  <rect x="72" y="682" width="1454" height="105" rx="20" fill="#F8FAFD" stroke="#D9E2EF" stroke-width="1.3"/>
  <rect x="94" y="704" width="112" height="34" rx="17" fill="#3278E818" stroke="none" stroke-width="1" /><text x="150" y="727" font-size="15" font-weight="700" fill="#3278E8" text-anchor="middle" >核心差异</text>
  <text x="228" y="728" font-size="17" font-weight="600" fill="#10213B" text-anchor="start" >它是验证“跨 patch temporal mixing 是否有效”的干净强基线：全局交互最直接，改动也小。</text><text x="228" y="755" font-size="17" font-weight="600" fill="#10213B" text-anchor="start" >若它与 ModernTCN-lite 接近，优先选择线性复杂度、纯 PyTorch 的 ModernTCN-lite。</text>
  <line x1="72" y1="816" x2="1526" y2="816" stroke="#D9E2EF" stroke-width="1"/>
  <text x="78" y="846" font-size="14" font-weight="750" fill="#8A98AA" text-anchor="start" >论文来源</text>
  <text x="155" y="846" font-size="14.5" font-weight="650" fill="#3278E8" text-anchor="start" >A Time Series is Worth 64 Words: Long-term Forecasting with Transformers — ICLR 2023</text>
  <a href="https://iclr.cc/virtual/2023/poster/10876" xlink:href="https://iclr.cc/virtual/2023/poster/10876"><rect x="150" y="824" width="900" height="30" fill="#FFFFFF" fill-opacity="0"/></a>
  <text x="1520" y="846" font-size="13.5" font-weight="520" fill="#8A98AA" text-anchor="end" >使用 encoder tokens、移除 forecasting head；非原论文图</text>
</svg>